<?xml version="1.0" encoding="UTF-8"?>
<svg xmlns="http://www.w3.org/2000/svg" width="199" height="26" fill="none">
  <path d="M91.805 19.043c-1.223 2.006-3.162 3.111-5.46 3.111-3.057 0-5.255-2.002-5.591-5.028H94.71l.006-.424c.048-3.068-.83-5.606-2.537-7.338-1.525-1.547-3.68-2.4-6.065-2.4-2.524 0-4.83.957-6.494 2.694-1.654 1.727-2.566 4.111-2.566 6.712l.003.181c.042 2.511.945 4.79 2.555 6.438 1.678 1.716 4.056 2.662 6.695 2.662 4.656 0 7.202-2.897 8.306-4.624l.217-.339-2.788-2.045-.244.4h.007zm-10.784-5.02c.747-2.243 2.681-3.662 5.062-3.662 2.381 0 4.137 1.326 4.742 3.662H81.02zm30.502-4.887c-1.369-1.377-3.408-2.172-5.674-2.172-5.107 0-8.958 4.017-8.958 9.343v.004c0 5.326 3.851 9.343 8.958 9.343 2.231 0 4.302-.814 5.674-2.18l.024 1.852h3.557V7.292h-3.557l-.024 1.844zm-.045 7.171c0 3.4-2.131 5.685-5.301 5.685-3.17 0-5.429-2.39-5.429-5.685 0-3.294 2.283-5.716 5.429-5.716 3.146 0 5.301 2.297 5.301 5.716zM123.058.69h-3.855v24.632h3.855V.69zM66.23 6.9c-4.365 0-5.544 1.436-5.544 1.436.018-.658.03-1.337.03-2.047v-5.6h-3.854v24.636h3.855V14.714c0-2.737 1.833-4.12 4.936-4.12 2.22 0 4.622 1.383 4.622 4.12v10.611h3.854V14.518c0-4.771-3.857-7.619-7.898-7.619v.002zm109.115 12.143c-1.223 2.006-3.162 3.111-5.46 3.111-3.059 0-5.255-2.002-5.591-5.028h13.956l.006-.424c.048-3.068-.829-5.606-2.537-7.338-1.525-1.547-3.679-2.4-6.065-2.4-2.524 0-4.83.957-6.494 2.694-1.654 1.727-2.566 4.111-2.566 6.712l.003.181c.042 2.511.945 4.79 2.555 6.438 1.679 1.716 4.056 2.662 6.695 2.662 4.656 0 7.202-2.897 8.306-4.624l.217-.339-2.788-2.045-.244.4h.007zm-10.784-5.02c.747-2.243 2.681-3.662 5.062-3.662 2.381 0 4.137 1.326 4.742 3.662h-9.804zm31.052 4.62l-.244.4c-1.223 2.006-3.162 3.111-5.459 3.111-3.059 0-5.256-2.002-5.592-5.028h13.956l.006-.424c.049-3.068-.829-5.606-2.536-7.338-1.525-1.547-3.68-2.4-6.066-2.4-2.522 0-4.828.957-6.491 2.694-1.653 1.727-2.564 4.111-2.564 6.712l.003.181c.042 2.511.945 4.79 2.553 6.438 1.679 1.716 4.057 2.662 6.697 2.662 4.653 0 7.201-2.897 8.305-4.624l.217-.339-2.788-2.045h.003zm-11.025-4.62c.747-2.243 2.682-3.662 5.063-3.662s4.134 1.326 4.738 3.662h-9.801zM133.911.69h-3.854v24.635h3.854V.69z" fill="#000"></path>
  <path d="M138.154 7.292h-12.341v3.593h12.341V7.292zm12.131-.392c-4.366 0-5.545 1.436-5.545 1.436.018-.658.03-1.337.03-2.047v-5.6h-3.854v24.636h3.854V14.714c0-2.737 1.834-4.12 4.936-4.12 2.221 0 4.623 1.383 4.623 4.12v10.611h3.854V14.518c0-4.771-3.858-7.619-7.898-7.619v.002z" fill="#000"></path>
  <path d="M34.266 22.259a9.72 9.72 0 00-1.58-2.975 9.671 9.671 0 00-7.674-3.747c-5.363 0-9.725 4.359-9.725 9.717 0 .078.005.153.01.226h5.164c.008-.075.01-.15.01-.226a4.542 4.542 0 018.86-1.399 2.592 2.592 0 004.932-1.596h.003z" fill="#FD5201"></path>
  <path d="M40.552 17.69A17.304 17.304 0 0025.01 7.987c-9.531 0-17.285 7.748-17.285 17.271 0 .078.005.153.01.226h5.163c.008-.076.01-.15.01-.226 0-6.665 5.426-12.088 12.1-12.088a12.119 12.119 0 0110.878 6.794 2.595 2.595 0 003.468 1.192 2.59 2.59 0 001.193-3.464h.005z" fill="#FD5201"></path>
  <path d="M46.333 12.64a24.915 24.915 0 00-3.104-4.164A24.865 24.865 0 0025.01.5C11.35.5.235 11.606.235 25.255c0 .077.006.152.01.225H5.41c.008-.075.01-.15.01-.226 0-10.792 8.787-19.571 19.589-19.571A19.653 19.653 0 0139.41 11.99a19.605 19.605 0 012.456 3.293 2.594 2.594 0 004.461-2.643h.005z" fill="#FD5201"></path>
</svg>
