<svg xmlns="http://www.w3.org/2000/svg" viewBox="0 0 500 500">
  <path fill="#2E9582" d="M201.1,214.4c-5.4,43.9-43.9,74.8-86.6,72.1c2.4-4.8,5.2-9.3,8.5-13.6c27-1.3,51.7-18.7,61.1-45.5 c-40.4,1.5-77,29.2-88.3,69.9c55.9,14.5,111.6-23.8,118.8-80.4c4.5,1.1,8.9,2.5,13.2,4.2c-10.7,69.7-83,110.8-148,85.5 C89,246.6,144.1,207.3,201.1,214.4z"/>
  <path fill="#2E9582" d="M230.7,253.9c35.3,26.6,42.9,75.4,19.2,111.1c-3-4.4-5.5-9.2-7.5-14.2c12.3-24,9.6-54.1-8.9-75.7 c-18.9,35.8-13.2,81.3,16.4,111.5c40.5-41.2,35.1-108.5-10.3-143.1c3.2-3.3,6.6-6.4,10.3-9.3c55,44.2,54.4,127.3,0,170.9 C202.6,367.1,196.1,299.7,230.7,253.9z"/>
  <path fill="#2E9582" d="M279.7,248c40.7-17.3,86.8,0.6,105.8,39c-5.3,0.3-10.7,0.2-16-0.6c-14.6-22.7-42.1-35.4-70-30.2 c21.5,34.3,63.8,52.1,104.7,41.5C388.8,242,327.8,213,275.2,235c-1.3-4.4-2.3-9-3-13.6c65.8-25.6,137.4,16.5,148,85.5 C363.8,328.9,302.1,300.9,279.7,248z"/>
  <path fill="#E1C45E" fill-rule="evenodd" clip-rule="evenodd" d="M291.2,149.2l-7.7,13.3l-15.9,27.6h-9.8l16-27.6l7.7-13.3l-7.7-13.3L250.1,95l-23.6,40.9l-7.7,13.3 l7.7,13.3l15.9,27.6h-9.7l-16-27.6l-7.7-13.3h-54.4l7.7,13.3l16,27.6l7.7,13.3h128.4l7.7-13.3l16-27.6l7.7-13.3H291.2z M241.8,162.5l-7.7-13.3l15.9-27.6l16,27.6l-7.7,13.3l-8.3,14.4L241.8,162.5z M193.6,190.1l-15.9-27.6h23.7l16,27.6H193.6z M306.6,190.1h-23.7l16-27.6h23.7L306.6,190.1z"/>
</svg>
