<?xml version="1.0" encoding="utf-8"?>
<!-- Generator: Adobe Illustrator 26.5.0, SVG Export Plug-In . SVG Version: 6.00 Build 0)  -->
<svg version="1.1" xmlns="http://www.w3.org/2000/svg" xmlns:xlink="http://www.w3.org/1999/xlink" x="0px" y="0px"
	 viewBox="0 0 500 150" style="enable-background:new 0 0 500 150;" xml:space="preserve">
<style type="text/css">
	.st0{fill:#2E9582;}
	.st1{fill:#FFFFFF;}
	.st2{fill:#0C0C0C;}
	.st3{fill:#E6E6E6;}
	.st4{fill:url(#SVGID_1_);}
	.st5{fill:url(#SVGID_00000169532752387325682130000011227762801817617297_);}
	.st6{fill:url(#SVGID_00000027564037435650171550000006197710678409816243_);}
	.st7{fill:url(#SVGID_00000112612725298615024230000017755689059476470425_);}
	.st8{fill:url(#SVGID_00000096045599619898231180000013626756165711542658_);}
	.st9{fill:url(#SVGID_00000165204224643039149340000003507928201526147972_);}
	.st10{fill:url(#SVGID_00000054967220707108169600000012324101039753400739_);}
	.st11{fill:#E1C45E;}
	.st12{fill:#CCCCCC;}
	.st13{fill:#121212;}
	.st14{fill:none;}
	.st15{fill-rule:evenodd;clip-rule:evenodd;fill:#FFFFFF;}
	.st16{fill-rule:evenodd;clip-rule:evenodd;fill:#0C0C0C;}
	.st17{fill-rule:evenodd;clip-rule:evenodd;fill:#E1C45E;}
</style>
<g id="Logo_06:_600_x__x_600_px">
	<g id="Graphic_Elements_5_">
	</g>
	<g id="Text_5_">
	</g>
</g>
<g id="Logo_05:_600_x__x_600_px">
	<g id="Graphic_Elements_4_">
	</g>
	<g id="Text_4_">
	</g>
</g>
<g id="Logo_04:_600_x__x_600_px">
	<g id="Graphic_Elements_3_">
	</g>
	<g id="Text_3_">
	</g>
</g>
<g id="Logo_03:_600_x__x_600_px">
	<g id="Graphic_Elements_2_">
	</g>
	<g id="Text_2_">
	</g>
</g>
<g id="Logo_02:_600_x__x_600_px">
	<g id="Graphic_Elements_1_">
	</g>
	<g id="Text_1_">
	</g>
</g>
<g id="Logo_01:_600_x__x_600_px">
	<g id="Graphic_Elements">
	</g>
	<g id="Text">
	</g>
	<g>
		<g>
			<g>
				<path class="st0" d="M206.6,54.6v1.2c-1.3,0-2.3,0.2-3,0.5c-0.7,0.3-1.2,0.8-1.4,1.5s-0.4,1.9-0.4,3.4v31c0,1.5,0.1,2.6,0.4,3.4
					c0.3,0.8,0.7,1.3,1.4,1.5c0.7,0.3,1.7,0.4,3,0.5v1.3c-1-0.1-2.4-0.1-4-0.2s-3.3,0-4.9,0c-1.9,0-3.6,0-5.3,0c-1.6,0-3,0.1-4,0.2
					v-1.3c1.4-0.1,2.4-0.2,3.1-0.5c0.7-0.3,1.1-0.8,1.4-1.5c0.2-0.8,0.3-1.9,0.3-3.4v-31c0-1.5-0.1-2.7-0.3-3.4
					c-0.2-0.7-0.7-1.2-1.4-1.5c-0.7-0.3-1.7-0.4-3.1-0.5v-1.2c1,0,2.4,0.1,4,0.1c1.6,0,3.4,0.1,5.3,0.1c1.7,0,3.3,0,4.9-0.1
					C204.3,54.7,205.6,54.6,206.6,54.6z M227.8,54.6v1.2c-1.4,0.3-2.8,0.8-4.2,1.6c-1.4,0.8-2.9,2.1-4.4,3.9l-11.8,14.5l2.8-4.5
					l14.9,22.5c0.7,1,1.4,1.7,2.1,2.3c0.7,0.6,1.6,1.1,2.8,1.5v1.3c-1.3-0.1-2.8-0.1-4.4-0.2c-1.7,0-3.2,0-4.6,0c-0.8,0-1.8,0-3,0
					c-1.2,0-2.7,0.1-4.5,0.2v-1.3c1.7-0.1,2.7-0.3,3-0.7c0.3-0.4,0.2-1.1-0.4-2.1l-9.1-14.4c-0.7-1.1-1.3-1.9-1.8-2.4
					c-0.5-0.5-1.1-0.9-1.6-1.1c-0.5-0.2-1.2-0.3-2-0.3v-1.3c1.8-0.1,3.3-0.5,4.7-1.4c1.4-0.8,2.8-2.1,4.1-3.7l4.4-5.6
					c1.5-1.8,2.5-3.4,2.8-4.7c0.3-1.3,0.1-2.3-0.6-3c-0.7-0.7-1.9-1.1-3.6-1.1v-1.2c0.9,0,1.8,0.1,2.8,0.1c0.9,0,1.8,0,2.8,0.1
					c0.9,0,1.9,0,3,0c1.2,0,2.3,0,3.3-0.1C226.2,54.7,227.1,54.6,227.8,54.6z"/>
				<path class="st0" d="M243.4,65.8V93c0,1.8,0.3,2.9,1,3.6c0.6,0.6,1.7,0.9,3.3,0.9v1.3c-0.8,0-1.9-0.1-3.4-0.2
					c-1.5-0.1-3.1-0.1-4.7-0.1c-1.5,0-3.1,0-4.7,0.1c-1.6,0.1-2.8,0.1-3.6,0.2v-1.3c1.5,0,2.6-0.3,3.3-0.9c0.6-0.6,1-1.8,1-3.6V73.4
					c0-1.9-0.3-3.3-0.9-4.2c-0.6-0.9-1.7-1.3-3.3-1.3v-1.3c1.3,0.1,2.6,0.2,3.9,0.2c1.5,0,3-0.1,4.4-0.2
					C240.9,66.4,242.2,66.1,243.4,65.8z M239,50.6c1.5,0,2.7,0.4,3.7,1.3c1,0.8,1.4,1.9,1.4,3.3s-0.5,2.5-1.4,3.3
					c-1,0.8-2.2,1.3-3.7,1.3c-1.5,0-2.7-0.4-3.7-1.3c-1-0.8-1.4-1.9-1.4-3.3s0.5-2.5,1.4-3.3C236.3,51,237.5,50.6,239,50.6z"/>
				<path class="st0" d="M273,65.7c1.8,0,3.2,0.2,4.2,0.7c1.1,0.5,1.9,1,2.6,1.8c0.8,0.8,1.3,1.8,1.6,3.1c0.3,1.3,0.5,2.9,0.5,5.1
					V93c0,1.8,0.3,2.9,1,3.6c0.6,0.6,1.7,0.9,3.3,0.9v1.3c-0.8,0-1.9-0.1-3.5-0.2c-1.6-0.1-3.1-0.1-4.5-0.1c-1.5,0-3,0-4.5,0.1
					c-1.5,0.1-2.5,0.1-3.3,0.2v-1.3c1.3,0,2.3-0.3,2.8-0.9c0.5-0.6,0.8-1.8,0.8-3.6V74.1c0-1.1-0.1-2.1-0.3-3
					c-0.2-0.9-0.6-1.6-1.3-2.1c-0.6-0.5-1.5-0.8-2.7-0.8c-1.4,0-2.6,0.4-3.7,1.1c-1.1,0.7-1.9,1.8-2.5,3.1c-0.6,1.3-0.9,2.8-0.9,4.4
					V93c0,1.8,0.3,2.9,0.8,3.6c0.5,0.6,1.5,0.9,2.8,0.9v1.3c-0.7,0-1.8-0.1-3.2-0.2c-1.4-0.1-2.9-0.1-4.3-0.1c-1.5,0-3.1,0-4.7,0.1
					c-1.6,0.1-2.8,0.1-3.6,0.2v-1.3c1.5,0,2.6-0.3,3.3-0.9c0.6-0.6,1-1.8,1-3.6V73.3c0-1.9-0.3-3.3-0.9-4.2
					c-0.6-0.9-1.7-1.3-3.3-1.3v-1.3c1.3,0.1,2.6,0.2,3.9,0.2c1.5,0,3-0.1,4.4-0.2c1.4-0.1,2.7-0.4,3.8-0.7v6.3c1-2.4,2.5-4,4.3-5
					C268.8,66.1,270.8,65.7,273,65.7z"/>
				<path class="st0" d="M299.9,110.6c-2.5,0-4.7-0.2-6.7-0.7c-2-0.5-3.6-1.1-4.8-2c-1.2-0.9-1.8-2-1.8-3.4c0-1.3,0.6-2.5,1.8-3.6
					c1.2-1,2.9-1.8,5.1-2.4l0.4,1c-0.8,0.5-1.4,1.1-1.8,1.9c-0.4,0.8-0.6,1.6-0.6,2.5c0,1.8,0.8,3.2,2.5,4.2c1.6,1,3.8,1.5,6.6,1.5
					c1.9,0,3.6-0.2,5.2-0.7c1.6-0.5,2.9-1.3,3.8-2.3c1-1,1.4-2.3,1.4-3.9c0-1.3-0.5-2.4-1.4-3.3c-0.9-0.9-2.8-1.3-5.6-1.3H300
					c-1.5,0-2.9-0.2-4.2-0.5c-1.3-0.3-2.3-0.9-3-1.6c-0.8-0.8-1.1-1.8-1.1-3.1c0-1.6,0.7-3.1,2-4.4c1.3-1.3,3.4-2.6,6.3-3.8l0.7,0.6
					c-1,0.5-2,1.1-2.8,1.8c-0.8,0.6-1.2,1.4-1.2,2.4c0,1.3,0.9,2,2.8,2h7.1c2.2,0,4.1,0.3,5.8,0.8s3,1.4,4,2.6
					c1,1.2,1.5,2.7,1.5,4.6c0,2-0.6,3.9-1.9,5.6c-1.3,1.7-3.2,3.1-5.8,4.2C307.3,110.1,304,110.6,299.9,110.6z M300.5,85.5
					c-2.3,0-4.3-0.3-6.1-1c-1.8-0.7-3.2-1.8-4.3-3.3c-1-1.5-1.6-3.4-1.6-5.7c0-2.3,0.5-4.2,1.6-5.6c1-1.5,2.5-2.5,4.3-3.3
					c1.8-0.7,3.8-1.1,6.1-1.1c2.3,0,4.3,0.4,6.1,1.1c1.8,0.7,3.2,1.8,4.3,3.3c1,1.5,1.6,3.3,1.6,5.6c0,2.3-0.5,4.2-1.6,5.7
					c-1,1.5-2.5,2.6-4.3,3.3C304.8,85.2,302.8,85.5,300.5,85.5z M300.5,84.4c1.3,0,2.2-0.6,3-1.9c0.7-1.3,1.1-3.6,1.1-6.9
					c0-3.3-0.4-5.6-1.1-6.9c-0.7-1.3-1.7-1.9-3-1.9c-1.3,0-2.2,0.6-3,1.9c-0.7,1.3-1.1,3.6-1.1,6.9c0,3.3,0.4,5.6,1.1,6.9
					C298.2,83.8,299.2,84.4,300.5,84.4z M309.9,71l-1.2-0.4c0.6-1.5,1.6-2.8,3.1-3.9c1.4-1.1,2.9-1.6,4.5-1.6c1.2,0,2.2,0.3,2.8,1
					c0.7,0.7,1,1.6,1,2.8c0,1.3-0.3,2.2-1,2.8c-0.7,0.6-1.4,0.9-2.2,0.9c-0.7,0-1.4-0.2-1.9-0.7c-0.6-0.5-0.9-1.2-1-2.3
					c-0.1-1,0.2-2.3,1-3.8l0.6,0.3c-1.6,0.6-2.8,1.3-3.6,2.1C311.2,68.7,310.5,69.7,309.9,71z"/>
				<path class="st0" d="M333.6,65.7c1.8,0,3.3,0.3,4.5,0.8c1.3,0.5,2.2,0.9,2.8,1.3c1.4,1,2.3,0.4,2.6-2h1.4
					c-0.1,1.2-0.1,2.6-0.2,4.3c0,1.6-0.1,3.8-0.1,6.6h-1.4c-0.2-1.5-0.6-3-1.2-4.5c-0.6-1.5-1.4-2.7-2.6-3.7c-1.1-1-2.6-1.5-4.4-1.5
					c-1.3,0-2.4,0.4-3.2,1.1c-0.9,0.8-1.3,1.8-1.3,3.2c0,1.3,0.4,2.3,1.1,3.3c0.8,0.9,1.7,1.8,2.9,2.6c1.2,0.8,2.4,1.7,3.7,2.7
					c1.5,1,2.8,2,4,3c1.2,1,2.1,2.1,2.8,3.4c0.7,1.2,1.1,2.7,1.1,4.3c0,1.9-0.5,3.6-1.6,4.9c-1.1,1.4-2.5,2.4-4.2,3.1
					c-1.7,0.7-3.6,1.1-5.7,1.1c-1.1,0-2.1-0.1-3.1-0.3c-0.9-0.2-1.7-0.5-2.4-0.8c-0.5-0.3-1-0.6-1.5-0.8c-0.4-0.3-0.9-0.5-1.3-0.6
					c-0.4-0.2-0.8-0.1-1.1,0.3c-0.3,0.4-0.6,1-0.7,1.9h-1.4c0.1-1.3,0.1-3,0.2-4.9c0-1.9,0.1-4.5,0.1-7.6h1.4c0.3,2.3,0.7,4.3,1.3,6
					c0.6,1.7,1.5,3.1,2.7,4.1c1.2,1,2.7,1.5,4.5,1.5c0.8,0,1.6-0.2,2.3-0.5c0.7-0.3,1.3-0.9,1.8-1.6c0.5-0.7,0.7-1.7,0.7-2.9
					c0-1.8-0.6-3.4-1.9-4.6s-2.8-2.5-4.7-3.9c-1.4-1-2.7-2.1-4-3.1c-1.2-1-2.2-2.1-3-3.4c-0.8-1.2-1.2-2.7-1.2-4.4
					c0-1.9,0.5-3.4,1.4-4.7c1-1.2,2.2-2.2,3.8-2.8C330.1,66,331.8,65.7,333.6,65.7z"/>
			</g>
			<g>
				<path class="st0" d="M366.4,50c1.4,0,2.6,0.2,3.6,0.5c1,0.4,1.9,0.8,2.7,1.4c0.6,0.5,1.1,1.1,1.5,1.9c0.4,0.8,0.6,1.6,0.6,2.5
					c0,1.1-0.4,2.1-1.2,2.9c-0.8,0.8-1.7,1.2-2.9,1.2c-1.3,0-2.3-0.4-3.1-1.1c-0.8-0.7-1.2-1.7-1.2-3c0-1,0.3-1.9,0.8-2.6
					c0.6-0.7,1.4-1.2,2.4-1.5c-0.1-0.3-0.4-0.5-0.8-0.7c-0.4-0.2-1-0.3-1.7-0.3c-0.8,0-1.6,0.2-2.2,0.5c-0.6,0.3-1.1,0.8-1.5,1.4
					c-0.4,0.7-0.7,1.8-0.9,3.1c-0.2,1.4-0.3,3.5-0.3,6.3v4.3h6.7v1.3h-6.7v24.6c0,2,0.6,3.4,1.7,4.1c1.1,0.7,2.6,1,4.5,1v1.3
					c-1,0-2.5-0.1-4.4-0.2c-1.9-0.1-3.9-0.1-6-0.1c-1.5,0-3,0-4.5,0.1c-1.5,0.1-2.6,0.1-3.4,0.2v-1.3c1.5,0,2.6-0.3,3.3-0.9
					c0.6-0.6,1-1.8,1-3.6V67.8H350v-1.3h4.5c0-2.5,0.1-4.5,0.4-6.2c0.2-1.6,0.6-3.1,1.2-4.2c0.5-1.2,1.2-2.2,2.2-3.1
					c0.9-0.9,2-1.7,3.5-2.3C363.1,50.3,364.7,50,366.4,50z"/>
				<path class="st0" d="M386.6,65.7c2.9,0,5.4,0.6,7.7,1.7c2.2,1.1,4,3,5.3,5.5c1.3,2.5,2,5.8,2,9.9c0,4.1-0.7,7.4-2,9.9
					c-1.3,2.5-3.1,4.3-5.3,5.4c-2.2,1.1-4.8,1.7-7.7,1.7c-2.9,0-5.4-0.6-7.7-1.7c-2.3-1.1-4-2.9-5.3-5.4c-1.3-2.5-1.9-5.8-1.9-9.9
					c0-4.1,0.6-7.4,1.9-9.9c1.3-2.5,3.1-4.3,5.3-5.5C381.1,66.2,383.7,65.7,386.6,65.7z M386.6,66.9c-2,0-3.6,1.2-4.8,3.7
					c-1.2,2.5-1.8,6.5-1.8,12.1c0,5.6,0.6,9.6,1.8,12.1c1.2,2.5,2.8,3.7,4.8,3.7c1.9,0,3.5-1.2,4.8-3.7c1.3-2.5,1.9-6.5,1.9-12.1
					c0-5.6-0.6-9.6-1.9-12.1C390.1,68.1,388.5,66.9,386.6,66.9z"/>
				<path class="st0" d="M417.8,65.8V93c0,1.8,0.3,2.9,1,3.6c0.6,0.6,1.7,0.9,3.3,0.9v1.3c-0.8,0-1.9-0.1-3.4-0.2
					c-1.5-0.1-3.1-0.1-4.7-0.1c-1.5,0-3.1,0-4.7,0.1c-1.6,0.1-2.8,0.1-3.6,0.2v-1.3c1.5,0,2.6-0.3,3.3-0.9c0.6-0.6,1-1.8,1-3.6V73.4
					c0-1.9-0.3-3.3-0.9-4.2c-0.6-0.9-1.7-1.3-3.3-1.3v-1.3c1.3,0.1,2.6,0.2,3.9,0.2c1.5,0,3-0.1,4.4-0.2
					C415.3,66.4,416.6,66.1,417.8,65.8z M413.4,50.6c1.5,0,2.7,0.4,3.7,1.3c1,0.8,1.4,1.9,1.4,3.3s-0.5,2.5-1.4,3.3
					c-1,0.8-2.2,1.3-3.7,1.3c-1.5,0-2.7-0.4-3.7-1.3c-1-0.8-1.4-1.9-1.4-3.3s0.5-2.5,1.4-3.3C410.7,51,411.9,50.6,413.4,50.6z"/>
				<path class="st0" d="M436.7,49.9V93c0,1.8,0.3,2.9,1,3.6c0.6,0.6,1.7,0.9,3.3,0.9v1.3c-0.8,0-1.9-0.1-3.4-0.2
					c-1.5-0.1-3.1-0.1-4.7-0.1c-1.5,0-3.1,0-4.7,0.1c-1.6,0.1-2.8,0.1-3.6,0.2v-1.3c1.5,0,2.6-0.3,3.3-0.9c0.6-0.6,1-1.8,1-3.6V57.4
					c0-1.9-0.3-3.3-0.9-4.2c-0.6-0.9-1.7-1.3-3.4-1.3v-1.3c1.3,0.1,2.6,0.2,3.9,0.2c1.6,0,3.1-0.1,4.4-0.2
					C434.2,50.4,435.5,50.2,436.7,49.9z"/>
			</g>
			<g>
				<path class="st11" d="M191.3,116.7v-11.1h1.2v11.1H191.3z M192.2,111.6v-1.1h5.6v1.1H192.2z M197.5,116.7v-11.1h1.2v11.1H197.5z
					"/>
				<path class="st11" d="M208.8,116.7v-11.1h6.1v1.1H210v3.9h4.5v1.1H210v4h4.9v1.1H208.8z"/>
				<path class="st11" d="M224.1,116.7l3.6-11.1h1.2l3.6,11.1h-1.2l-3-9.5l-3,9.5H224.1z M225.8,113.8l0.3-1.1h4.4l0.3,1.1H225.8z"
					/>
				<path class="st11" d="M242,116.7v-11.1h1.2v10.1h4.6v1.1H242z"/>
				<path class="st11" d="M258.2,116.7v-10h-2.9v-1.1h7v1.1h-2.9v10H258.2z"/>
				<path class="st11" d="M271.7,116.7v-11.1h1.2v11.1H271.7z M272.7,111.6v-1.1h5.6v1.1H272.7z M278,116.7v-11.1h1.2v11.1H278z"/>
			</g>
		</g>
		<g>
			<path class="st0" d="M100,63c-1.8,14.8-14.8,25.3-29.2,24.3c0.8-1.6,1.8-3.2,2.9-4.6c9.1-0.4,17.4-6.3,20.6-15.4
				c-13.6,0.5-26,9.8-29.8,23.6c18.9,4.9,37.6-8,40.1-27.1c1.5,0.4,3,0.9,4.5,1.4c-3.6,23.5-28,37.4-50,28.8
				C62.2,73.9,80.8,60.6,100,63z"/>
			<path class="st0" d="M110,76.3c11.9,9,14.5,25.5,6.5,37.5c-1-1.5-1.9-3.1-2.5-4.8c4.2-8.1,3.2-18.3-3-25.5
				c-6.4,12.1-4.5,27.4,5.5,37.6c13.7-13.9,11.9-36.6-3.5-48.3c1.1-1.1,2.2-2.2,3.5-3.2c18.6,14.9,18.4,43,0,57.7
				C100.5,114.5,98.3,91.8,110,76.3z"/>
			<path class="st0" d="M126.6,74.3c13.7-5.8,29.3,0.2,35.7,13.1c-1.8,0.1-3.6,0.1-5.4-0.2c-4.9-7.7-14.2-11.9-23.6-10.2
				c7.3,11.6,21.5,17.6,35.3,14C163.4,72.3,142.8,62.5,125,70c-0.4-1.5-0.8-3-1-4.6c22.2-8.6,46.4,5.6,50,28.8
				C154.9,101.6,134.1,92.2,126.6,74.3z"/>
			<g>
				<path class="st17" d="M130.4,41l-2.6,4.5l-5.4,9.3h-3.3l5.4-9.3l2.6-4.5l-2.6-4.5l-8-13.8l-8,13.8L106,41l2.6,4.5l5.4,9.3h-3.3
					l-5.4-9.3l-2.6-4.5H84.4l2.6,4.5l5.4,9.3l2.6,4.5h43.3l2.6-4.5l5.4-9.3l2.6-4.5H130.4z M113.8,45.5l-2.6-4.5l5.4-9.3L122,41
					l-2.6,4.5l-2.8,4.8L113.8,45.5z M97.5,54.8l-5.4-9.3h8l5.4,9.3H97.5z M135.6,54.8h-8l5.4-9.3h8L135.6,54.8z"/>
			</g>
		</g>
	</g>
</g>
</svg>
