<?xml version="1.0" encoding="utf-8"?>
<!-- Generator: Adobe Illustrator 26.5.0, SVG Export Plug-In . SVG Version: 6.00 Build 0)  -->
<svg version="1.1" xmlns="http://www.w3.org/2000/svg" xmlns:xlink="http://www.w3.org/1999/xlink" x="0px" y="0px"
	 viewBox="0 0 500 500" style="enable-background:new 0 0 500 500;" xml:space="preserve">
<style type="text/css">
	.st0{fill:#2E9582;}
	.st1{fill:#FFFFFF;}
	.st2{fill:#0C0C0C;}
	.st3{fill:#E6E6E6;}
	.st4{fill:url(#SVGID_1_);}
	.st5{fill:url(#SVGID_00000054960916155803027240000012552006861418679996_);}
	.st6{fill:url(#SVGID_00000006675049110331044590000011127151553434460333_);}
	.st7{fill:url(#SVGID_00000168111092312892476940000013285088555673788825_);}
	.st8{fill:url(#SVGID_00000054266801953691588090000007292505252654060465_);}
	.st9{fill:url(#SVGID_00000060004961920605971970000002323225727334292651_);}
	.st10{fill:url(#SVGID_00000173864891437743546590000002657460363064494523_);}
	.st11{fill:#E1C45E;}
	.st12{fill:#CCCCCC;}
	.st13{fill:#121212;}
	.st14{fill:none;}
	.st15{fill-rule:evenodd;clip-rule:evenodd;fill:#FFFFFF;}
	.st16{fill-rule:evenodd;clip-rule:evenodd;fill:#0C0C0C;}
	.st17{fill-rule:evenodd;clip-rule:evenodd;fill:#E1C45E;}
</style>
<g id="Logo_06:_600_x__x_600_px">
	<g id="Graphic_Elements_5_">
	</g>
	<g id="Text_5_">
	</g>
</g>
<g id="Logo_05:_600_x__x_600_px">
	<g id="Graphic_Elements_4_">
	</g>
	<g id="Text_4_">
	</g>
</g>
<g id="Logo_04:_600_x__x_600_px">
	<g id="Graphic_Elements_3_">
	</g>
	<g id="Text_3_">
	</g>
</g>
<g id="Logo_03:_600_x__x_600_px">
	<g id="Graphic_Elements_2_">
	</g>
	<g id="Text_2_">
	</g>
</g>
<g id="Logo_02:_600_x__x_600_px">
	<g id="Graphic_Elements_1_">
	</g>
	<g id="Text_1_">
	</g>
</g>
<g id="Logo_01:_600_x__x_600_px">
	<g id="Graphic_Elements">
	</g>
	<g id="Text">
	</g>
	<g>
		<g>
			<path class="st2" d="M217.6,170.9c-3.5,28.6-28.6,48.8-56.5,47c1.5-3.1,3.4-6.1,5.5-8.9c17.6-0.9,33.7-12.2,39.8-29.7
				c-26.3,1-50.2,19-57.6,45.6c36.5,9.4,72.7-15.5,77.5-52.4c2.9,0.7,5.8,1.6,8.6,2.7c-7,45.5-54.1,72.2-96.5,55.7
				C144.5,192,180.4,166.3,217.6,170.9z"/>
			<path class="st2" d="M236.9,196.7c23,17.3,27.9,49.2,12.5,72.4c-1.9-2.9-3.6-6-4.9-9.2c8-15.7,6.3-35.3-5.8-49.4
				c-12.3,23.3-8.6,53,10.7,72.7c26.4-26.9,22.9-70.8-6.7-93.3c2.1-2.2,4.3-4.2,6.7-6.1c35.9,28.8,35.5,83,0,111.4
				C218.6,270.5,214.3,226.5,236.9,196.7z"/>
			<path class="st2" d="M268.9,192.8c26.5-11.3,56.6,0.4,69,25.4c-3.5,0.2-7,0.1-10.4-0.4c-9.5-14.8-27.4-23.1-45.6-19.7
				c14,22.3,41.6,34,68.3,27.1c-10.1-36.3-49.8-55.2-84.1-40.9c-0.8-2.9-1.5-5.9-1.9-8.8c42.9-16.7,89.6,10.8,96.5,55.7
				C323.6,245.6,283.4,227.3,268.9,192.8z"/>
			<g>
				<path class="st16" d="M276.3,128.4l-5,8.7l-10.4,18h-6.4l10.4-18l5-8.7l-5-8.7l-15.4-26.7l-15.4,26.7l-5,8.7l5,8.7l10.4,18h-6.3
					l-10.4-18l-5-8.7h-35.5l5,8.7l10.4,18l5,8.7h83.7l5-8.7l10.4-18l5-8.7H276.3z M244.1,137.1l-5-8.7l10.4-18l10.4,18l-5,8.7
					l-5.4,9.4L244.1,137.1z M212.7,155.1l-10.4-18h15.5l10.4,18H212.7z M286.4,155.1h-15.5l10.4-18h15.5L286.4,155.1z"/>
			</g>
		</g>
		<g>
			<g>
				<g>
					<path class="st2" d="M87.2,305.7v1.9c-2,0.1-3.5,0.3-4.6,0.7c-1,0.4-1.7,1.2-2.1,2.3s-0.6,2.8-0.6,5.1v46.7
						c0,2.3,0.2,4,0.6,5.1c0.4,1.1,1.1,1.9,2.1,2.3c1,0.4,2.6,0.6,4.6,0.8v1.9c-1.6-0.1-3.6-0.2-6-0.2c-2.4,0-4.9,0-7.4,0
						c-2.8,0-5.5,0-7.9,0c-2.4,0-4.5,0.1-6,0.2v-1.9c2.1-0.1,3.6-0.4,4.7-0.8c1-0.4,1.7-1.1,2.1-2.3c0.3-1.1,0.5-2.8,0.5-5.1v-46.7
						c0-2.3-0.2-4-0.5-5.1c-0.3-1.1-1-1.9-2.1-2.3c-1-0.4-2.6-0.6-4.7-0.7v-1.9c1.6,0.1,3.6,0.1,6,0.2c2.4,0.1,5.1,0.1,7.9,0.1
						c2.5,0,5,0,7.4-0.1C83.6,305.8,85.6,305.7,87.2,305.7z M119,305.7v1.9c-2.1,0.4-4.2,1.2-6.3,2.4c-2.1,1.2-4.3,3.1-6.6,5.8
						l-17.8,21.9l4.2-6.8l22.5,33.9c1,1.4,2,2.6,3.1,3.5c1.1,0.9,2.4,1.6,4.1,2.3v1.9c-1.9-0.1-4.2-0.2-6.7-0.2c-2.5,0-4.8,0-6.9,0
						c-1.2,0-2.7,0-4.5,0c-1.8,0-4,0.1-6.7,0.2v-1.9c2.5-0.1,4-0.5,4.5-1.1c0.5-0.6,0.3-1.6-0.7-3.2l-13.8-21.7
						c-1-1.6-1.9-2.9-2.7-3.7c-0.8-0.8-1.6-1.4-2.4-1.6c-0.8-0.3-1.8-0.5-3-0.5v-1.9c2.6-0.1,5-0.8,7.1-2.1c2.1-1.3,4.1-3.1,6.2-5.6
						l6.7-8.4c2.3-2.8,3.7-5.1,4.2-7.1c0.5-1.9,0.2-3.5-0.8-4.5c-1.1-1.1-2.9-1.6-5.4-1.7v-1.9c1.4,0.1,2.8,0.1,4.1,0.1
						c1.4,0,2.8,0.1,4.2,0.1c1.4,0,2.9,0,4.5,0c1.8,0,3.5,0,4.9-0.1C116.7,305.8,118,305.7,119,305.7z"/>
					<path class="st2" d="M142.6,322.6v41c0,2.6,0.5,4.4,1.5,5.4c1,0.9,2.6,1.4,4.9,1.4v2c-1.1-0.1-2.9-0.1-5.2-0.2
						c-2.3-0.1-4.7-0.1-7.1-0.1c-2.3,0-4.7,0-7.1,0.1c-2.4,0.1-4.2,0.2-5.4,0.2v-2c2.3,0,4-0.5,4.9-1.4c1-0.9,1.5-2.7,1.5-5.4V334
						c0-2.9-0.5-5-1.4-6.4c-0.9-1.3-2.6-2-5-2v-2c2,0.2,4,0.3,5.8,0.3c2.3,0,4.5-0.1,6.6-0.3C138.9,323.4,140.8,323.1,142.6,322.6z
						 M136,299.6c2.3,0,4.1,0.6,5.6,1.9c1.4,1.3,2.2,2.9,2.2,5s-0.7,3.7-2.2,5c-1.4,1.3-3.3,1.9-5.6,1.9c-2.3,0-4.1-0.6-5.6-1.9
						c-1.4-1.3-2.2-2.9-2.2-5s0.7-3.7,2.2-5C131.9,300.3,133.7,299.6,136,299.6z"/>
					<path class="st2" d="M187.2,322.3c2.6,0,4.8,0.3,6.4,1c1.6,0.7,2.9,1.6,3.9,2.6c1.1,1.2,1.9,2.7,2.4,4.6
						c0.5,1.9,0.7,4.4,0.7,7.6v25.3c0,2.6,0.5,4.4,1.5,5.4c1,0.9,2.6,1.4,4.9,1.4v2c-1.1-0.1-2.9-0.1-5.2-0.2
						c-2.4-0.1-4.6-0.1-6.8-0.1c-2.3,0-4.6,0-6.8,0.1c-2.2,0.1-3.8,0.2-4.9,0.2v-2c2,0,3.4-0.5,4.2-1.4c0.8-0.9,1.2-2.7,1.2-5.4
						v-28.5c0-1.7-0.2-3.2-0.5-4.6c-0.3-1.3-0.9-2.4-1.9-3.2c-0.9-0.8-2.3-1.2-4.1-1.2c-2.1,0-3.9,0.6-5.5,1.7
						c-1.6,1.1-2.9,2.7-3.8,4.7c-0.9,2-1.4,4.2-1.4,6.6v24.5c0,2.6,0.4,4.4,1.2,5.4c0.8,0.9,2.2,1.4,4.2,1.4v2
						c-1.1-0.1-2.7-0.1-4.8-0.2c-2.1-0.1-4.3-0.1-6.5-0.1c-2.3,0-4.7,0-7.1,0.1c-2.4,0.1-4.2,0.2-5.4,0.2v-2c2.3,0,4-0.5,4.9-1.4
						c1-0.9,1.5-2.7,1.5-5.4v-29.7c0-2.8-0.5-4.9-1.4-6.3c-0.9-1.3-2.6-2-5-2v-2c2,0.2,4,0.3,5.8,0.3c2.3,0,4.5-0.1,6.6-0.3
						c2.1-0.2,4-0.5,5.8-1v9.4c1.6-3.6,3.7-6.1,6.5-7.5C180.9,323.1,183.9,322.3,187.2,322.3z"/>
					<path class="st2" d="M227.8,390.1c-3.7,0-7.1-0.3-10.1-1c-3-0.7-5.4-1.7-7.2-3.1c-1.8-1.4-2.6-3.1-2.6-5.1c0-2,0.9-3.8,2.6-5.4
						c1.8-1.6,4.3-2.8,7.7-3.6l0.7,1.5c-1.2,0.7-2.1,1.6-2.7,2.8c-0.6,1.2-0.9,2.4-0.9,3.8c0,2.7,1.2,4.8,3.7,6.3
						c2.5,1.5,5.8,2.2,9.9,2.2c2.8,0,5.4-0.4,7.8-1.1c2.4-0.8,4.3-1.9,5.7-3.5c1.4-1.6,2.2-3.5,2.2-5.8c0-1.9-0.7-3.6-2.1-4.9
						c-1.4-1.3-4.2-2-8.4-2h-6.2c-2.3,0-4.4-0.3-6.4-0.8c-1.9-0.5-3.4-1.3-4.6-2.4c-1.1-1.1-1.7-2.7-1.7-4.7c0-2.4,1-4.7,3-6.6
						c2-2,5.2-3.9,9.4-5.8l1,0.8c-1.6,0.8-3,1.7-4.2,2.6c-1.2,0.9-1.8,2.1-1.8,3.6c0,2,1.4,3,4.1,3h10.6c3.3,0,6.2,0.4,8.7,1.2
						c2.5,0.8,4.6,2.1,6.1,3.9c1.5,1.8,2.3,4.1,2.3,7c0,3-1,5.8-2.9,8.4c-1.9,2.6-4.9,4.7-8.8,6.3
						C238.9,389.3,233.9,390.1,227.8,390.1z M228.6,352.3c-3.4,0-6.5-0.5-9.2-1.6c-2.7-1-4.9-2.7-6.5-4.9c-1.6-2.2-2.4-5.1-2.4-8.5
						c0-3.5,0.8-6.3,2.4-8.5c1.6-2.2,3.7-3.8,6.5-4.9c2.7-1.1,5.8-1.6,9.2-1.6c3.5,0,6.5,0.5,9.2,1.6c2.7,1.1,4.8,2.7,6.4,4.9
						c1.6,2.2,2.4,5,2.4,8.5c0,3.5-0.8,6.3-2.4,8.5c-1.6,2.2-3.7,3.9-6.4,4.9C235.1,351.8,232.1,352.3,228.6,352.3z M228.6,350.6
						c1.9,0,3.4-1,4.5-2.9c1.1-1.9,1.6-5.4,1.6-10.4c0-5-0.6-8.5-1.6-10.4c-1.1-1.9-2.6-2.9-4.5-2.9c-1.9,0-3.4,1-4.5,2.9
						c-1.1,1.9-1.6,5.4-1.6,10.4c0,5,0.5,8.5,1.6,10.4C225.2,349.7,226.7,350.6,228.6,350.6z M242.8,330.4l-1.8-0.7
						c0.9-2.3,2.5-4.3,4.6-5.9c2.1-1.6,4.4-2.4,6.8-2.4c1.8,0,3.3,0.5,4.3,1.5c1,1,1.6,2.4,1.6,4.2c0,1.9-0.5,3.3-1.5,4.1
						c-1,0.9-2.1,1.3-3.3,1.3c-1.1,0-2-0.4-2.9-1.1c-0.9-0.7-1.4-1.9-1.5-3.4c-0.1-1.5,0.4-3.5,1.5-5.8l0.9,0.4
						c-2.4,0.9-4.3,2-5.5,3.1C244.8,327,243.8,328.5,242.8,330.4z"/>
					<path class="st2" d="M278.5,322.3c2.6,0,4.9,0.4,6.8,1.1c1.9,0.8,3.3,1.4,4.1,2c2.1,1.6,3.4,0.6,3.9-3h2.1
						c-0.1,1.8-0.2,4-0.3,6.5c-0.1,2.5-0.1,5.8-0.1,9.9H293c-0.3-2.3-0.9-4.6-1.8-6.8c-0.9-2.2-2.2-4-3.9-5.5
						c-1.7-1.5-3.9-2.2-6.7-2.2c-1.9,0-3.6,0.6-4.9,1.7c-1.3,1.1-1.9,2.7-1.9,4.8c0,1.9,0.6,3.5,1.7,4.9c1.1,1.4,2.6,2.7,4.4,4
						c1.8,1.2,3.7,2.6,5.6,4c2.3,1.5,4.3,3,6,4.6c1.8,1.5,3.2,3.2,4.2,5.1c1.1,1.9,1.6,4,1.6,6.5c0,2.9-0.8,5.4-2.4,7.4
						c-1.6,2-3.7,3.6-6.3,4.7c-2.6,1.1-5.5,1.6-8.6,1.6c-1.7,0-3.2-0.2-4.6-0.5c-1.4-0.3-2.6-0.7-3.7-1.2c-0.8-0.4-1.6-0.8-2.2-1.2
						c-0.7-0.4-1.3-0.7-2-0.9c-0.6-0.3-1.2-0.2-1.6,0.4c-0.5,0.6-0.8,1.5-1.1,2.8h-2.1c0.1-2,0.2-4.5,0.3-7.3
						c0.1-2.9,0.1-6.7,0.1-11.5h2.1c0.4,3.5,1.1,6.5,2,9.1c0.9,2.6,2.2,4.6,4,6.1c1.8,1.5,4,2.2,6.8,2.2c1.2,0,2.3-0.3,3.4-0.8
						c1.1-0.5,2-1.3,2.7-2.4c0.7-1.1,1.1-2.5,1.1-4.3c0-2.8-0.9-5.1-2.8-6.9c-1.9-1.8-4.2-3.8-7.1-5.8c-2.1-1.6-4.1-3.1-6-4.6
						c-1.9-1.5-3.4-3.2-4.5-5.1c-1.2-1.9-1.7-4.1-1.7-6.7c0-2.8,0.7-5.2,2.2-7c1.4-1.9,3.3-3.3,5.7-4.2
						C273.3,322.8,275.8,322.3,278.5,322.3z"/>
				</g>
				<g>
					<path class="st2" d="M327.9,298.7c2.1,0,3.9,0.3,5.4,0.8c1.5,0.5,2.9,1.2,4,2.1c0.9,0.8,1.7,1.7,2.3,2.8
						c0.6,1.1,0.9,2.4,0.9,3.8c0,1.7-0.6,3.1-1.7,4.3c-1.2,1.2-2.6,1.8-4.4,1.8c-1.9,0-3.4-0.5-4.7-1.6c-1.2-1.1-1.8-2.6-1.8-4.6
						c0-1.5,0.4-2.8,1.3-3.9c0.8-1.1,2.1-1.9,3.6-2.3c-0.2-0.4-0.6-0.8-1.2-1.1c-0.6-0.3-1.5-0.5-2.5-0.5c-1.3,0-2.3,0.3-3.3,0.8
						c-0.9,0.5-1.6,1.2-2.2,2.1c-0.6,1.1-1.1,2.6-1.3,4.7c-0.3,2.1-0.4,5.2-0.4,9.4v6.5H332v1.9h-10.1v37c0,3.1,0.8,5.1,2.5,6.2
						c1.7,1,3.9,1.6,6.7,1.6v2c-1.6-0.1-3.8-0.1-6.6-0.2c-2.8-0.1-5.8-0.1-9-0.1c-2.3,0-4.5,0-6.8,0.1c-2.3,0.1-4,0.2-5.1,0.2v-2
						c2.3,0,4-0.5,4.9-1.4c1-0.9,1.5-2.7,1.5-5.4v-38h-6.8v-1.9h6.8c0-3.7,0.2-6.8,0.6-9.3c0.4-2.5,1-4.6,1.7-6.4
						c0.8-1.8,1.9-3.3,3.3-4.7c1.3-1.4,3.1-2.5,5.2-3.4C323,299.1,325.3,298.7,327.9,298.7z"/>
					<path class="st2" d="M358.4,322.3c4.3,0,8.2,0.9,11.5,2.6c3.4,1.7,6,4.5,8,8.2c2,3.8,3,8.7,3,14.9c0,6.2-1,11.1-3,14.9
						c-2,3.8-4.6,6.5-8,8.2c-3.4,1.7-7.2,2.5-11.5,2.5c-4.3,0-8.2-0.8-11.6-2.5c-3.4-1.7-6.1-4.4-8-8.2c-1.9-3.8-2.9-8.7-2.9-14.9
						c0-6.2,1-11.1,2.9-14.9c1.9-3.8,4.6-6.5,8-8.2C350.2,323.2,354,322.3,358.4,322.3z M358.4,324.2c-3,0-5.4,1.9-7.2,5.6
						c-1.9,3.7-2.8,9.8-2.8,18.2c0,8.4,0.9,14.5,2.8,18.2c1.9,3.7,4.3,5.6,7.2,5.6c2.9,0,5.3-1.9,7.2-5.6c1.9-3.7,2.8-9.8,2.8-18.2
						c0-8.4-0.9-14.5-2.8-18.2C363.6,326.1,361.2,324.2,358.4,324.2z"/>
					<path class="st2" d="M405.4,322.6v41c0,2.6,0.5,4.4,1.5,5.4c1,0.9,2.6,1.4,4.9,1.4v2c-1.1-0.1-2.9-0.1-5.2-0.2
						c-2.3-0.1-4.7-0.1-7.1-0.1c-2.3,0-4.7,0-7.1,0.1c-2.4,0.1-4.2,0.2-5.4,0.2v-2c2.3,0,4-0.5,4.9-1.4c1-0.9,1.5-2.7,1.5-5.4V334
						c0-2.9-0.5-5-1.4-6.4c-0.9-1.3-2.6-2-5-2v-2c2,0.2,4,0.3,5.8,0.3c2.3,0,4.5-0.1,6.6-0.3C401.7,323.4,403.6,323.1,405.4,322.6z
						 M398.8,299.6c2.3,0,4.1,0.6,5.6,1.9c1.4,1.3,2.2,2.9,2.2,5s-0.7,3.7-2.2,5c-1.4,1.3-3.3,1.9-5.6,1.9c-2.3,0-4.1-0.6-5.6-1.9
						c-1.4-1.3-2.2-2.9-2.2-5s0.7-3.7,2.2-5C394.7,300.3,396.5,299.6,398.8,299.6z"/>
					<path class="st2" d="M433.8,298.6v65c0,2.6,0.5,4.4,1.5,5.4c1,0.9,2.6,1.4,4.9,1.4v2c-1.1-0.1-2.8-0.1-5.1-0.2
						c-2.3-0.1-4.6-0.1-7-0.1c-2.3,0-4.7,0-7.1,0.1c-2.4,0.1-4.2,0.2-5.4,0.2v-2c2.3,0,4-0.5,4.9-1.4c1-0.9,1.5-2.7,1.5-5.4v-53.7
						c0-2.8-0.4-4.9-1.3-6.3c-0.9-1.3-2.6-2-5.1-2v-2c2,0.2,4,0.3,5.8,0.3c2.4,0,4.6-0.1,6.7-0.3C430.2,299.4,432.1,299,433.8,298.6
						z"/>
				</g>
			</g>
			<g>
				<path class="st2" d="M262.2,406.9v-21.2h2.3v21.2H262.2z M264,397.2v-2.1h11v2.1H264z M274.5,406.9v-21.2h2.3v21.2H274.5z"/>
				<path class="st2" d="M296.6,406.9v-21.2h11.9v2.1h-9.6v7.4h8.8v2.1h-8.8v7.6h9.6v2.1H296.6z"/>
				<path class="st2" d="M326.6,406.9l7.1-21.2h2.4l7.1,21.2h-2.4l-5.9-18l-5.9,18H326.6z M329.9,401.5l0.7-2.1h8.7l0.7,2.1H329.9z"
					/>
				<path class="st2" d="M361.8,406.9v-21.2h2.3v19.1h9v2H361.8z"/>
				<path class="st2" d="M393.5,406.9v-19.1h-5.7v-2.1h13.8v2.1h-5.7v19.1H393.5z"/>
				<path class="st2" d="M420.1,406.9v-21.2h2.3v21.2H420.1z M422,397.2v-2.1h11v2.1H422z M432.4,406.9v-21.2h2.3v21.2H432.4z"/>
			</g>
		</g>
	</g>
</g>
</svg>
